<svg xmlns="http://www.w3.org/2000/svg" viewBox="0 0 524 440" class="jss6" role="none" aria-label="newMap" style="height: 200px;">

<g>
  <path id="110" name="room 1" class="st0" d="M245.158 371.006C245.621 371.251 246.085 371.496 246.548 371.741C249.547 373.292 251.892 374.49 252.3 376.422C252.409 376.993 252.409 377.864 251.646 378.763C251.51 378.926 251.483 379.007 251.483 379.007C251.51 378.953 251.673 379.144 251.782 379.28C252.3 379.96 253.364 381.375 252.191 383.389C251.837 383.988 251.428 384.532 251.019 385.022C252.409 383.798 254.536 382.355 258.025 383.743C260.533 384.75 261.242 385.648 261.624 386.846C261.733 387.091 262.114 387.499 264.759 388.152C267.376 388.805 268.521 389.241 269.23 389.486C269.866 389.722 271.483 389.84 274.082 389.84C276.972 389.84 278.989 390.085 280.461 390.275C281.361 390.384 282.369 390.52 282.615 390.411C282.969 389.921 283.269 389.186 283.623 388.234C284.114 386.982 284.714 385.431 285.804 383.634C286.213 382.954 286.159 382.518 286.022 381.92C285.504 379.116 287.249 378.245 291.093 377.483C292.81 377.13 294.064 376.803 295.1 376.558C298.426 375.714 299.517 375.551 302.706 377.293C305.868 379.035 306.85 380.123 307.804 381.212C308.049 381.484 308.267 381.756 308.567 382.029C308.84 382.301 309.058 382.546 309.276 382.763C310.121 383.689 310.285 383.852 311.511 383.689C311.975 383.607 312.684 382.954 313.229 382.41C314.129 381.539 315.137 380.504 316.5 380.777C317.836 381.022 318.463 382.355 318.654 382.791C319.908 385.485 320.153 386.873 320.426 388.452C320.535 388.996 320.617 389.595 320.78 390.302C321.135 391.963 321.216 392.017 322.007 392.589C322.28 392.779 322.579 392.997 322.961 393.296C324.297 394.358 324.597 394.956 324.788 395.963C324.842 396.236 324.897 396.508 325.087 396.97C325.333 397.542 325.306 398.141 325.033 398.658C324.488 399.719 323.179 399.991 321.789 400.291C321.734 400.291 321.653 400.318 321.571 400.345C322.198 400.563 323.097 400.808 324.27 400.917C327.65 401.298 331.058 400.726 332.557 399.529C333.211 399.012 333.811 398.494 334.356 398.005C336.755 395.936 339.018 393.977 341.88 396.018C343.979 397.515 345.37 397.814 348.859 397.487C349.595 397.433 350.686 397.324 351.367 398.141C351.94 398.875 351.667 399.692 351.531 400.073C351.394 400.508 351.095 401.325 354.693 402.74C358.346 404.155 360.118 403.938 361.072 403.829C361.672 403.747 362.435 403.666 363.062 404.264C363.744 404.918 363.689 405.707 363.553 407.313C363.28 410.443 361.508 411.776 360.418 412.565C360.145 412.756 359.791 413.028 359.736 413.164C359.736 414.035 359.164 414.443 358.891 414.607C357.91 415.124 357.065 414.552 356.056 413.899C354.966 413.191 354.23 412.81 353.93 412.81C353.902 412.81 353.848 412.81 353.821 412.81C353.793 412.81 353.63 412.974 353.493 413.464C353.085 414.824 352.703 415.722 352.349 416.485C351.612 418.199 351.231 419.07 351.476 423.642C351.722 428.541 351.612 429.902 351.422 432.597C351.34 433.74 351.231 435.155 351.122 437.223C351.04 438.775 351.176 439.591 351.285 440C351.776 439.619 352.757 438.639 353.984 436.461C356.601 431.889 357.201 431.454 360.718 430.311L361.127 430.174C360.118 429.303 358.755 428.133 358.918 426.446C359.027 425.248 359.845 424.187 361.481 423.234C364.78 421.275 367.751 418.607 370.15 416.457C371.949 414.852 373.258 413.681 374.266 413.191C375.139 412.756 376.311 412.538 377.701 412.32C379.909 411.939 382.663 411.477 383.562 409.953C384.626 408.184 386.043 407.34 387.543 406.442C389.124 405.489 390.95 404.4 393.158 401.842C395.094 399.638 395.421 398.331 395.748 397.188C396.13 395.8 396.539 394.711 398.065 393.487C395.476 390.357 393.867 391.445 390.923 393.459C389.015 394.766 386.616 396.426 383.617 396.426C382.363 396.426 381 396.127 379.528 395.392C376.202 393.732 372.413 393.759 368.76 393.813C362.762 393.868 356.547 393.949 353.112 386.438C348.287 375.932 343.298 345.64 342.616 341.34C342.562 341.286 342.507 341.231 342.453 341.177C342.453 341.503 342.453 341.775 342.48 342.048C342.562 343.381 342.644 344.769 341.608 345.667C340.572 346.566 339.045 346.402 337.655 346.103C334.82 345.504 333.702 342.864 332.802 340.714C331.63 337.911 331.33 337.883 330.512 338.21C329.204 338.727 328.277 339.272 327.541 339.734C326.505 340.36 325.605 340.932 324.488 340.551C323.37 340.142 322.852 338.918 322.416 337.72C321.925 336.332 320.889 334.89 319.799 333.311C318.136 330.97 316.255 328.33 315.955 325.309C315.682 322.642 314.456 320.138 313.365 317.934C312.738 316.655 312.138 315.43 311.757 314.26C311.375 313.089 311.239 311.865 311.13 310.667C310.884 308.354 310.694 307.047 309.44 306.476C308.813 306.476 307.068 308.68 306.141 309.851C303.797 312.763 301.152 316.083 297.99 314.749C294.364 313.225 292.238 307.238 290.957 303.645C290.848 303.346 290.739 303.019 290.629 302.72C290.493 302.801 290.384 302.883 290.248 302.938C287.794 304.38 282.696 307.401 278.253 302.693C276.127 300.434 274.873 298.501 273.973 297.086C273.755 296.759 273.591 296.487 273.428 296.27C268.03 303.373 244.122 335.57 243.004 347.355C241.914 359.003 244.558 368.72 245.267 371.06L245.158 371.006Z"/> ;;
  <path id="111" name="room 2" class="st0" d="M197.207 266.06V381.512C215.308 383.145 229.648 384.37 231.91 384.37C236.654 384.37 237.117 383.227 238.317 380.179C238.589 379.498 238.889 378.736 239.244 377.947C239.98 376.369 240.061 374.817 240.143 373.592C240.225 372.232 240.307 370.925 241.424 370.299C241.588 370.19 241.779 370.163 241.97 370.136C240.907 366.135 239.107 357.399 240.089 347.056C241.261 334.564 264.76 302.83 270.812 294.883C266.505 295.645 260.017 294.991 258.708 294.855C258.108 294.91 256.5 296.652 255.518 297.686C253.419 299.945 251.429 302.068 249.221 301.632C248.022 301.387 247.095 300.435 246.495 298.774C245.296 295.508 245.35 292.868 245.405 290.528C245.459 287.915 245.514 285.629 243.851 282.798C242.842 281.057 242.624 281.193 241.67 281.71C240.934 282.118 239.925 282.662 238.698 282.281C237.635 281.955 236.736 280.975 235.863 279.26C234.173 275.885 232.156 269.598 231.256 263.502L200.397 265.951C199.415 266.033 198.352 266.088 197.262 266.115L197.207 266.06Z"/> ;;
  <path id="112" name="room 3" class="st0" d="M99.6392 248.968C97.1039 257.242 83.5007 301.414 77.585 312.055C76.0857 314.75 75.5404 316.709 76.0039 317.88C76.4673 319.105 78.2393 319.731 80.093 320.411C82.1376 321.146 84.4275 321.962 85.7633 323.867C88.7621 328.14 88.8166 329.311 89.0892 333.693C89.1437 334.4 89.171 335.162 89.2527 336.088C89.6344 341.449 93.451 345.613 103.837 351.982C106.373 353.533 107.981 355.738 108.581 358.514C109.699 363.739 106.972 369.645 105.364 372.53C107.954 373.048 109.562 373.374 109.644 373.374C109.917 373.374 119.104 374.272 132.298 375.524L149.254 260.371C132.271 257.051 114.551 252.805 99.6937 248.968H99.6392Z"/> ;;
  <path id="113" name="room 4" class="st0" d="M152.007 260.89L135.078 375.77C152.198 377.376 175.07 379.526 194.344 381.268V266.088C183.085 266.034 167.982 263.911 152.007 260.89Z"/> ;;
  <path id="114" name="room 5" class="st0" d="M77.4758 130.359C75.4312 129.678 74.9132 130.168 73.5775 131.529C72.9504 132.155 72.1871 132.944 71.124 133.652C68.7522 135.23 66.7349 134.686 65.6172 133.625C64.5268 132.59 64.1996 130.985 64.7994 129.678C64.4995 129.107 63.4909 127.909 62.7003 127.011C60.8465 124.861 58.5293 122.112 57.4662 119.146C35.3302 148.485 3.84363 190.616 2.58962 193.31C2.37153 193.936 1.98987 194.726 1.5537 195.542C0.763124 197.121 -0.35458 199.271 0.108858 200.414C0.299686 200.876 0.844908 201.285 1.69 201.557C4.17076 202.373 4.79776 204.197 4.87955 206.02C10.1137 209.205 46.2346 231.005 64.7176 236.448C65.5082 236.693 69.8427 237.945 76.4944 239.796C82.6281 217.805 76.7943 201.883 76.0855 200.114C75.622 198.917 74.9132 197.665 74.1499 196.331C72.1326 192.739 69.5973 188.275 69.2429 181.117C68.9158 174.803 70.4152 172.98 72.9232 170.748C74.0136 169.795 75.1041 168.788 76.1673 166.856C77.7211 163.944 77.2304 161.467 76.5762 158.364C76.0309 155.779 75.4312 152.839 76.0037 149.274C76.5217 146.035 77.8574 140.265 79.2205 134.686C78.8934 134.142 78.8661 133.461 78.8661 132.917C78.8661 131.475 78.7025 130.767 77.4485 130.359H77.4758Z"/> ;;
  <path id="115" name="room 6" class="st0" d="M368.651 390.929C372.468 390.902 376.803 390.847 380.728 392.807C384.163 394.522 386.507 392.916 389.206 391.065C392.26 388.969 396.022 386.384 400.438 391.963C402.482 391.038 404.881 390.711 407.417 390.385C410.988 389.922 414.695 389.459 418.239 387.337C425 383.281 425.982 378.6 425.518 376.45C425.464 376.259 421.674 355.929 429.853 352.772C436.504 350.186 438.958 350.24 443.538 355.575C445.555 357.943 446.673 360.528 447.572 362.597C448.608 364.992 449.29 366.489 450.462 366.842C451.171 367.06 451.743 367.251 452.234 367.441C453.979 368.067 454.006 368.094 455.614 366.516C456.787 365.346 457.604 363.495 458.449 361.563C459.404 359.358 460.412 357.099 462.13 355.194C463.847 353.289 464.692 351.574 464.474 350.431C464.338 349.669 463.684 349.016 462.566 348.444C461.285 347.791 459.785 347.519 458.368 347.274C456.378 346.92 454.497 346.566 453.542 345.124C452.997 344.28 452.888 343.246 453.188 342.021C453.488 340.878 453.515 340.116 453.488 339.68C453.324 339.789 453.106 339.98 452.806 340.252C452.125 340.932 451.607 341.667 451.062 342.429C449.753 344.253 448.281 346.321 444.901 347.165C436.532 349.261 435.714 347.818 435.278 347.056C434.732 346.076 435.059 344.988 436.286 343.763C436.995 343.055 437.895 342.13 438.849 341.15C442.992 336.932 446.291 333.611 447.872 332.55C449.262 331.516 453.134 327.896 451.88 325.419C451.443 324.548 450.844 324.085 449.999 323.977C448.063 323.677 445.146 325.229 442.802 327.814C441.002 329.774 438.603 331.162 436.45 332.359C433.969 333.775 431.625 335.108 430.998 336.959C430.534 338.401 430.534 339.381 430.534 340.443C430.534 342.266 430.534 344.144 428.462 347.573C427.263 349.56 427.181 350.404 427.072 351.601C426.908 353.343 426.69 355.493 423.664 360.991C422.056 363.876 421.238 365.618 420.666 366.87C419.303 369.782 418.948 370.571 413.142 377.103C408.78 382.002 400.656 388.915 397.357 386.683C395.94 385.731 395.94 383.826 397.357 381.022C399.566 376.64 400.983 375.416 402.782 373.892C404.2 372.667 405.972 371.17 408.889 367.36C410.634 365.073 412.187 363.277 413.55 361.699C417.367 357.29 419.303 355.085 419.303 349.261C419.303 346.675 418.948 344.716 418.621 342.974C417.885 338.973 417.285 335.789 421.62 329.175C424.1 325.392 424.755 323.106 425.327 321.064C426.091 318.37 426.69 316.22 430.861 312.682C434.732 309.389 443.51 305.061 451.989 300.87C458.695 297.577 465.019 294.447 467.091 292.678C469.817 290.337 473.334 281.628 475.624 275.885C476.742 273.109 477.505 271.258 478.105 270.006C469.436 269.544 461.012 277.817 454.142 284.567C449.753 288.867 446.291 292.269 443.401 292.732C442.038 292.95 440.948 292.895 440.075 292.514C440.375 293.657 440.539 294.773 440.43 295.835C440.294 297.549 439.994 298.829 438.958 299.427C438.603 299.645 438.249 299.727 437.895 299.727C437.104 299.727 436.286 299.318 435.387 298.883C433.724 298.067 431.461 296.951 427.863 297.141C426.336 297.223 424.21 297.141 423.337 295.726C422.765 294.773 422.983 293.739 423.337 292.841C422.356 293.195 421.592 293.521 420.938 293.794C417.176 295.345 416.495 294.801 414.586 291.29C414.259 290.691 413.85 289.956 413.36 289.085C412.433 287.452 411.37 286.146 410.361 284.867C407.471 281.247 404.745 277.845 405.808 268.727C406.681 261.324 412.296 261.705 416.849 261.978C421.456 262.277 424.346 262.277 425.682 258.712C426.363 256.861 426.499 255.527 426.091 254.711C425.464 253.54 423.419 252.996 421.02 252.397C418.185 251.662 414.968 250.846 412.296 248.56C408.534 245.348 407.226 241.538 405.972 237.837C404.936 234.761 403.927 231.849 401.556 229.1C396.54 223.249 394.277 220.717 393.923 220.336C393.105 219.738 392.423 218.894 392.069 217.669C391.769 216.662 391.142 216.118 390.787 215.955C390.787 216.172 390.787 216.58 391.006 217.206C391.414 218.54 392.069 219.139 392.832 219.846C394.549 221.425 395.776 223.031 394.849 227.903C393.405 235.469 392.287 241.375 387.816 243.416C385.253 244.586 384.19 243.933 383.263 242.518C382.882 241.919 382.5 241.347 380.81 241.102C379.147 240.885 379.065 241.048 378.629 241.946C378.166 242.899 377.511 244.368 375.276 245.158C373.477 245.811 372.332 245.348 371.705 244.858C369.851 243.389 370.287 240.068 370.587 237.619C370.614 237.347 370.505 236.993 369.933 236.448C368.406 234.924 365.435 233.727 364.481 233.7C363.963 234.081 363.281 234.217 362.627 234.026C361.618 233.754 360.8 232.856 360.5 231.686C360.064 230.107 360.637 228.392 362.054 226.977C362.981 226.052 364.808 224.228 365.244 223.303C365.026 223.249 364.671 223.194 364.099 223.194C362.3 223.194 361.209 223.602 360.146 224.011C358.292 224.691 356.52 225.371 353.031 223.357C350.659 221.997 350.087 220.826 349.705 219.738C349.678 219.629 349.623 219.493 349.596 219.438C349.541 219.411 349.051 219.166 346.761 219.057C343.271 218.867 341.39 217.288 340.164 216.254C338.828 215.138 338.773 215.056 337.438 216.281C335.938 217.669 335.584 218.703 335.284 219.547C334.548 221.752 333.43 222.269 330.404 221.833C329.123 221.643 327.46 221.235 325.715 220.772C323.507 220.2 319.473 219.193 318.3 219.52C318.3 219.656 318.382 219.846 318.546 220.146C320.318 223.874 320.345 228.011 320.345 231.359C320.345 233.046 320.345 234.652 320.645 235.469C321.108 236.775 321.244 236.911 321.981 237.592C322.553 238.136 323.425 238.925 324.761 240.531C325.47 241.375 326.07 241.919 326.533 242.354C328.687 244.287 328.796 245.267 327.487 251.064C326.833 253.976 325.606 256.099 324.707 257.623C324.298 258.358 323.698 259.338 323.725 259.637C323.725 259.637 324.08 260.1 326.479 260.753C328.987 261.433 330.159 260.916 331.195 260.453C334.33 259.065 335.693 260.508 338.773 266.278C340.736 269.952 343.053 272.075 344.907 273.789C348.506 277.11 350.523 279.478 346.679 285.928C344.416 289.766 342.072 292.977 340.164 295.563C338.065 298.448 335.884 301.441 336.129 302.448C336.184 302.639 336.184 302.666 337.083 302.911C338.692 303.292 341.418 303.945 342.672 309.008C343.353 311.784 343.462 314.124 343.571 316.029C343.708 319.132 343.844 320.547 345.507 321.609C348.315 323.378 347.77 325.8 347.333 327.705C346.979 329.365 346.625 330.917 347.688 332.768C348.315 333.856 348.969 334.836 349.569 335.761C351.177 338.184 352.431 340.089 351.831 341.912C351.504 342.892 350.686 343.654 349.378 344.117C348.097 344.579 346.897 344.362 345.807 343.817C347.306 352.69 351.586 376.559 355.593 385.268C358.265 391.092 362.818 391.065 368.624 390.984L368.651 390.929Z"/>;
  <path id="116" name="room 7" class="st0" d="M79.3842 157.793C80.0657 161.032 80.7472 164.407 78.7026 168.217C77.4214 170.612 76.0038 171.864 74.8588 172.898C72.9778 174.586 71.8328 175.593 72.1327 181.009C72.4598 187.486 74.7225 191.46 76.6853 194.971C77.4759 196.386 78.2392 197.72 78.7844 199.08C79.5205 200.931 85.6542 217.696 79.2751 240.558C106.454 248.07 164.657 263.121 194.453 263.23C195.298 251.527 196.743 223.466 194.453 217.397C192.654 212.607 185.13 213.015 178.533 213.396C175.861 213.532 173.326 213.696 171.227 213.505C163.703 212.797 160.758 208.443 157.024 202.918L156.179 201.666C154.57 199.325 153.97 199.516 152.662 199.979C151.272 200.441 149.145 201.149 146.528 198.645C144.729 196.903 142.63 194.127 139.986 190.616C136.142 185.527 131.371 179.212 125.265 173.116C119.594 167.455 118.94 162.583 119.403 159.48C120.058 155.017 123.138 151.86 125.592 150.526C127.364 149.546 128.781 148.921 129.79 148.512C128.863 147.532 127.554 146.798 125.265 146.281C121.039 145.355 119.431 146.253 118.149 146.961C116.377 147.968 114.933 148.458 112.179 145.927C109.889 143.804 109.617 141.055 109.399 138.823C109.126 135.965 108.99 134.523 105.773 134.251C100.13 133.734 98.9576 134.36 96.804 135.503C96.2042 135.829 95.55 136.156 94.7594 136.537C92.2241 137.68 89.0891 136.728 86.3085 135.884C84.8636 135.448 82.71 134.795 82.1103 135.122C80.7472 140.756 79.3841 146.607 78.8662 149.791C78.3755 152.84 78.8662 155.371 79.4114 157.847L79.3842 157.793ZM126.491 127.31C129.354 128.698 134.533 131.801 135.569 127.31C136.605 122.82 136.959 118.002 142.466 115.58C148 113.158 156.287 112.123 157.296 107.987C158.332 103.85 152.471 106.599 150.399 101.101C148.327 95.5759 133.497 89.3977 132.788 93.1808C132.107 96.9639 137.287 95.2493 134.506 100.774C131.753 106.299 126.219 108.368 126.219 114.219C126.219 118.383 127.254 116.641 126.219 120.071C125.183 123.5 123.601 125.922 126.464 127.31H126.491ZM149.036 81.2334C152.144 79.9814 151.789 80.063 157.351 79.3826C162.885 78.675 158.359 75.2457 162.149 72.8507C162.149 72.8507 163.539 77.3414 166.647 78.0218C169.755 78.7022 166.974 76.3072 166.647 70.4284C166.292 64.5769 161.822 66.2915 160.431 69.0132C159.041 71.7348 154.897 74.2387 151.462 76.2527C148 78.294 145.928 82.4853 149.036 81.2334Z"/>;
  <path id="117" name="room 8" class="st0" d="M105.773 359.085C105.337 357.071 104.219 355.52 102.338 354.377C92.6606 348.416 86.9358 343.545 86.4178 336.251C86.3633 335.325 86.3088 334.536 86.2543 333.828C86.0089 329.719 85.9817 329.093 83.4464 325.473C82.6286 324.303 80.9384 323.704 79.1391 323.051C76.8492 322.234 74.2594 321.282 73.3598 318.832C72.5965 316.791 73.1417 314.178 75.1318 310.64C80.8021 300.461 94.3508 256.642 96.9134 248.233C78.7575 243.524 65.4268 239.605 63.9547 239.17C46.0715 233.89 13.2219 214.375 4.77094 209.231C4.55286 211.844 4.77094 213.45 7.30622 214.403C8.99641 215.029 10.6593 215.41 12.2405 215.791C17.2293 216.934 21.9182 218.022 21.1003 226.895C20.6914 231.25 21.3729 233.182 22.109 235.196C23.0359 237.754 23.9627 240.421 22.9268 247.198C22.0817 252.723 23.6901 253.975 25.7347 255.581C27.6975 257.132 30.151 259.038 29.8784 264.508C29.6876 268.482 30.4781 271.666 31.1597 274.469C32.1956 278.606 33.0679 282.144 29.2786 284.866C25.1622 287.833 22.7905 286.036 21.6455 285.165C21.6455 285.165 21.591 285.138 21.5638 285.111C20.855 285.9 20.0099 287.125 20.2552 288.268C20.4733 289.357 19.9554 290.527 19.4647 291.67C19.3011 292.051 19.0557 292.595 18.9467 292.976C21.1276 292.976 25.4621 291.616 27.9429 290.636L28.4881 290.418L29.0333 290.663C29.2514 290.745 30.3146 291.289 30.7507 292.704C31.1869 294.065 30.8053 295.698 29.6603 297.549C28.7879 298.964 28.8697 299.889 28.9788 300.815C29.0878 301.849 29.2786 303.754 26.4162 304.407C25.8983 304.516 25.4076 304.543 24.9714 304.516C25.244 304.924 25.5166 305.169 25.7892 305.387C26.8797 306.285 27.3976 307.156 27.1795 309.388C27.1795 309.606 27.1795 309.687 27.1795 309.687C27.2341 309.606 27.9974 309.551 28.4336 309.497C29.5785 309.388 31.9502 309.197 32.3319 311.402C32.4137 311.865 32.55 312.327 32.7135 312.79C33.2315 314.396 34.1039 317.117 31.296 318.723C30.0965 319.404 28.6244 319.54 27.3431 319.676C26.6888 319.73 25.6257 319.839 25.3803 320.03C25.6529 321.744 25.7892 321.908 26.3617 322.67C26.6071 322.996 26.9069 323.377 27.2886 323.949C27.8065 324.711 29.8511 326.126 31.3777 327.16C34.0221 328.984 35.1398 329.746 34.9489 330.998C35.9576 330.78 36.8845 330.78 37.6751 331.27C38.1658 331.597 38.7928 332.25 38.9291 333.556C39.0108 334.536 39.1472 335.407 39.2835 336.196C39.6378 338.537 40.0195 340.959 37.7023 341.912L37.2116 342.102C37.2116 342.102 36.9663 342.211 36.8027 342.265C37.457 342.538 38.0022 342.619 38.5201 342.701C39.9922 342.946 41.3553 343.354 41.6824 345.94C41.9005 347.6 40.9464 348.852 40.3194 349.668C40.2649 349.75 40.1831 349.859 40.1013 349.968C40.2921 350.049 40.592 350.158 41.0009 350.267C42.8547 350.784 43.5907 350.403 44.0269 350.158C44.354 349.995 45.0355 349.614 45.7989 350.022C46.6439 350.458 46.6985 351.165 46.862 352.88C46.9166 353.37 46.9983 354.54 46.5076 355.465C46.6167 355.574 46.7257 355.71 46.862 355.874L47.1346 356.309C47.4345 356.663 48.9611 358.16 55.313 360.827C61.6648 363.494 89.0894 369.21 102.366 371.904C103.62 369.781 106.782 363.848 105.746 359.058L105.773 359.085ZM22.327 333.068C18.8649 329.611 13.7943 327.135 16.793 333.068C17.3655 334.184 18.1833 332.387 18.5105 335.49C18.8649 338.593 20.2279 339.627 22.6541 342.049C25.0804 344.471 25.0804 343.083 25.0804 346.866C25.0804 350.65 25.6256 349.969 28.4607 352.718C31.2959 355.467 30.6144 351.684 32.6862 356.855C34.7581 362.026 30.6144 360.311 34.7581 362.026C38.9017 363.741 33.7221 350.65 30.6144 347.547C27.5066 344.444 25.7892 336.524 22.327 333.068Z"/>;
  <path id="118" name="room 9" class="st0" d="M479.085 349.26C475.977 351.329 470.443 347.872 469.434 350.975C468.398 354.078 467.008 355.466 469.434 356.5C471.833 357.534 481.565 352.363 478.267 356.5C474.968 360.637 464.909 360.991 465.972 365.127C467.035 369.264 461.501 367.876 464.282 374.435C467.035 380.995 468.071 386.166 471.533 381.675C474.996 377.184 472.215 369.972 474.287 366.842C476.359 363.739 477.749 363.059 481.538 359.249C485.328 355.466 492.252 349.26 488.435 345.45C485.873 342.919 482.22 347.165 479.112 349.233L479.085 349.26Z"/>;
  <path id="119" name="room 10" class="st0" d="M307.832 162.12C305.76 156.595 304.67 154.799 301.616 158.664C298.127 163.073 293.683 171.075 301.616 170.394C309.549 169.714 309.904 167.645 307.832 162.12ZM122.184 159.862C121.666 163.454 123.356 167.21 127.255 171.075C133.525 177.307 138.35 183.73 142.248 188.874C144.729 192.14 146.855 194.971 148.491 196.577C149.854 197.883 150.508 197.665 151.735 197.257C153.834 196.549 155.933 196.25 158.523 200.06L159.368 201.312C162.939 206.592 165.284 210.076 171.472 210.647C173.353 210.811 175.779 210.675 178.342 210.539C185.566 210.13 194.562 209.613 197.098 216.39C199.851 223.766 197.779 255.963 197.288 263.202C198.243 263.175 199.197 263.148 200.096 263.066L230.847 260.617C230.492 256.616 230.738 252.915 231.992 250.383C232.946 248.506 233.845 246.002 234.827 243.362C237.171 236.966 239.407 230.924 243.032 230.325L244.232 230.134C245.84 229.889 247.503 229.617 247.83 229.127C247.967 228.882 247.939 228.338 247.749 227.631C246.985 224.854 241.915 223.82 234.5 223.167C228.502 222.623 224.059 220.772 222.887 218.377C222.423 217.397 222.478 216.363 223.077 215.465C224.686 213.042 226.158 213.287 228.039 213.587C228.475 213.668 228.993 213.723 229.593 213.805C231.228 213.995 231.992 214.267 232.973 214.621C234.009 215.002 235.399 215.519 238.752 216.227C240.661 216.635 242.514 217.179 244.123 217.669C247.967 218.812 250.338 219.438 250.965 218.295C251.402 217.506 251.538 216.88 251.647 216.308C252.192 213.805 253.364 213.206 257.126 213.451C261.161 213.723 262.224 212.716 262.879 208.116C263.097 206.674 262.933 205.667 262.442 205.041C261.761 204.197 260.207 203.734 257.29 203.517C253.719 203.272 244.45 200.904 243.523 197.665C243.251 196.713 243.605 195.76 244.477 195.107C247.176 193.093 249.63 194.073 252.765 195.352C253.746 195.76 254.864 196.196 256.145 196.631C259.525 197.747 263.86 196.849 265.523 195.27C266.259 194.563 266.123 194.045 266.068 193.855C265.768 192.793 265.114 191.542 264.487 190.317C263.287 188.031 262.251 186.044 263.069 184.384C263.369 183.785 263.996 183.05 265.468 182.778C267.649 182.37 269.421 182.996 270.702 183.458C271.139 183.622 271.657 183.785 271.902 183.812C271.793 183.485 271.357 182.097 271.111 181.363C270.539 179.593 269.994 177.906 271.193 176.872C272.393 175.838 274.192 176.654 274.955 177.008L276.1 177.552C279.344 179.104 279.508 179.158 281.143 176.3C280.953 175.375 280.38 173.252 278.853 172.218C277.191 171.075 272.556 166.911 272.474 163.427C272.447 162.257 272.911 161.277 273.837 160.596C274.982 159.753 275.609 158.664 275.555 157.684C275.473 156.596 274.492 155.834 273.674 155.398C272.611 154.827 271.357 153.874 270.021 152.894C267.786 151.234 264.405 148.703 262.851 149.029C262.66 149.084 262.415 149.193 262.17 149.655C261.924 150.091 261.815 150.363 261.788 150.526C261.897 150.581 262.061 150.662 262.197 150.717C263.56 151.397 265.85 152.513 266.504 157.031C267.077 161.114 266.531 162.583 266.041 163.89C265.659 164.924 265.359 165.713 265.795 168.353C266.095 170.231 266.477 171.565 266.777 172.653C267.486 175.157 267.949 176.817 265.904 179.73C264.023 182.397 262.061 183.676 260.098 183.54C258.19 183.404 256.527 181.934 255.164 179.212C254.428 177.743 253.801 176.654 253.283 175.783C251.838 173.306 251.074 171.946 252.356 169.034C253.146 167.237 252.574 163.155 251.293 161.658C251.102 161.44 250.911 161.331 250.884 161.358C248.975 161.821 248.648 164.679 249.166 167.292C249.657 169.714 248.894 172.708 246.876 173.334C245.922 173.606 244.123 173.606 242.678 170.204C241.751 168.054 240.688 166.312 239.761 164.761C238.589 162.828 237.58 161.168 237.144 159.29C236.98 158.582 235.372 157.684 234.091 156.977C231.828 155.725 228.393 153.82 229.92 150.445C230.847 148.403 232.728 147.859 233.955 147.478C234.336 147.369 234.881 147.206 235.018 147.07C235.018 147.07 235.072 146.417 233.764 144.13C229.893 137.354 225.694 132.727 223.323 132.563C222.968 132.563 222.505 132.591 221.987 133.271C218.961 137.19 219.179 138.143 219.806 140.973C220.16 142.606 219.888 143.94 219.67 145.001C219.343 146.526 219.288 147.097 220.133 147.941C221.305 149.111 221.66 149.846 221.932 150.39C222.178 150.907 222.341 151.207 224.004 152.214C224.74 152.649 225.585 153.085 226.43 153.547C229.811 155.344 233.655 157.385 234.336 160.733C234.527 161.685 234.936 162.365 235.345 163.073C236.244 164.57 237.28 166.285 235.617 169.877C234.391 172.517 232.019 173.715 230.083 174.667C228.066 175.674 227.657 176.001 227.766 176.572C227.93 177.416 228.421 178.505 228.857 179.539C229.811 181.689 230.792 183.921 230.002 185.881C229.593 186.888 228.775 187.65 227.603 188.139C224.44 189.446 222.75 186.806 221.633 185.064C220.379 183.104 219.642 182.206 218.279 182.37C217.38 182.506 216.589 182.642 215.88 182.778C212.636 183.349 210.292 183.785 205.194 181.961C202.768 181.118 202.25 181.172 202.168 181.226C201.269 181.88 200.423 182.397 198.433 182.397C195.489 182.397 194.78 182.016 193.581 180.546C193.145 180.029 192.545 179.294 191.318 178.287C190.528 177.661 189.819 177.008 189.11 176.409C187.202 174.749 185.021 172.898 184.23 173.279C183.494 173.66 182.24 173.932 180.277 174.368C178.587 174.749 175.289 175.457 174.171 176.137C176.515 178.886 177.769 181.281 177.769 185.799C177.769 187.214 178.478 188.52 179.078 189.664C179.787 190.97 180.441 192.222 179.923 193.474C179.432 194.644 178.178 194.998 177.769 195.134C173.299 196.413 170.354 191.106 166.32 183.758L166.102 183.377C164.602 180.655 164.03 178.396 163.594 176.763C163.121 174.949 162.158 174.177 160.704 174.45C159.941 174.586 142.112 177.879 139.168 173.769C138.786 173.252 138.295 172.136 139.168 170.612C140.858 167.673 143.802 167.509 145.738 167.373C146.583 167.319 147.619 167.264 147.837 166.992C147.946 166.856 148.055 166.421 147.946 165.631C147.782 164.162 147.81 163.209 147.837 162.583C147.837 162.474 147.837 162.365 147.837 162.257C147.537 162.093 146.91 161.876 146.283 161.603C145.056 161.114 143.202 160.406 140.476 159.154C134.724 156.568 132.98 153.493 131.562 151.016C131.507 150.935 131.453 150.853 131.426 150.771C130.526 151.125 128.999 151.751 126.9 152.894C125.401 153.711 122.702 156.078 122.157 159.753L122.184 159.862ZM288.859 207.327C291.285 202.455 286.542 201.285 281.608 201.067C278.772 200.958 275.038 201.067 275.038 201.067C275.038 201.067 272.53 192.113 270.84 194.181C269.149 196.25 269.749 203.135 270.84 207.272C271.93 211.409 271.221 213.832 272.966 215.192C274.683 216.58 276.428 212.77 277.791 218.649C279.181 224.5 289.077 216.907 286.378 213.124C283.679 209.341 286.433 212.199 288.859 207.327ZM182.866 134.878C179.759 137.3 179.759 123.147 176.651 121.433C173.543 119.718 174.579 131.775 171.826 131.067C169.072 130.387 172.507 126.93 171.144 121.759C169.754 116.588 164.574 124.508 159.749 121.759C154.924 119.01 161.467 119.691 159.395 113.132C157.323 106.573 155.251 114.52 153.179 115.554C151.107 116.588 142.466 123.147 142.466 124.182C142.466 125.216 148.327 126.604 155.251 128.999C162.148 131.421 150.426 136.238 151.462 140.022C152.498 143.805 165.61 141.056 164.956 146.227C164.302 151.398 155.933 145.873 150.753 146.227C145.573 146.581 146.609 147.615 149.035 153.439C151.462 159.291 153.534 159.672 154.897 164.843C156.287 170.014 163.538 165.197 171.471 164.843C179.404 164.489 180.604 151.48 182.866 157.25C186.656 166.884 191.835 167.918 195.298 164.135C198.76 160.352 190.472 159.998 191.508 154.827C192.544 149.656 201.186 157.25 200.15 153.439C199.114 149.629 196.006 148.295 191.863 142.09C187.719 135.885 191.508 126.577 187.365 121.052C183.221 115.527 185.974 132.428 182.866 134.85V134.878ZM227.74 108.857C224.741 110.545 221.17 107.442 222.206 110.817C223.241 114.192 225.395 113.158 223.787 117.295C222.206 121.431 219.588 123.5 224.85 126.249C230.138 128.998 232.537 127.963 231.174 126.249C229.784 124.534 224.604 125.65 228.421 121.105C232.21 116.587 237.744 103.142 227.74 108.83V108.857ZM200.204 122.113C200.123 124.535 205.302 127.964 207.701 131.067C210.127 134.169 212.881 134.169 215.307 131.067C217.706 127.964 215.661 126.903 213.589 122.113C211.518 117.295 213.235 111.906 210.836 110.818C208.41 109.729 205.248 107.007 205.302 110.818C205.384 116.642 203.912 116.969 205.302 120.752C206.692 124.535 200.286 119.718 200.204 122.113ZM204.267 81.4781C201.077 82.975 206.693 88.2006 205.657 91.5482C204.621 94.8958 202.495 97.6719 205.984 97.6719C209.473 97.6719 211.218 98.8966 210.509 91.5482C209.801 84.227 210.155 78.7292 204.267 81.4781ZM200.205 56.63C201.841 59.3788 198.133 61.4473 203.286 65.2576C208.411 69.0407 212.091 65.6114 206.966 62.5087C201.841 59.4061 204.349 60.0865 203.286 54.2349C202.195 48.3834 201.868 45.9611 196.334 50.4519C194.235 52.1393 198.57 53.9083 200.205 56.6572V56.63ZM259.852 106.272C255.164 107.306 258.135 112.124 258.135 115.58C258.135 119.037 253.31 117.295 254.346 119.717C255.382 122.139 258.489 119.363 259.88 122.139C261.27 124.888 259.198 123.527 259.88 125.922C260.561 128.345 259.825 128.345 260.37 131.093C260.916 133.842 262.579 135.584 260.37 137.299C258.162 139.013 254.019 138.687 256.09 135.23C258.162 131.774 246.086 129.678 246.413 122.302C246.767 114.9 251.238 107.66 246.413 110.082C241.588 112.505 238.234 113.865 238.534 120.425C238.834 126.984 234.445 130.767 238.534 133.516C242.623 136.265 244.341 133.162 247.122 136.618C249.875 140.075 244.695 140.075 245.404 142.143C246.086 144.212 253.337 146.28 255.082 143.858C256.799 141.436 259.662 141.789 261.515 143.177C263.369 144.566 270.512 146.716 269.857 144.947C269.23 143.177 266.722 139.721 270.893 140.075C275.091 140.429 278.09 143.531 279.699 142.497C281.307 141.463 277.054 134.577 279.699 132.509C282.343 130.44 283.379 131.474 284.415 134.931C285.451 138.36 301.344 144.239 305.488 149.41C309.631 154.581 309.849 148.73 314.565 154.581C319.309 160.433 325.797 164.243 323.752 168.026C321.708 171.809 318.082 172.843 319.391 175.266C320.699 177.688 327.051 175.619 326.642 179.049C326.206 182.505 318.791 182.832 319.391 184.9C319.99 186.969 308.268 183.512 307.914 188.003C307.559 192.494 305.842 194.889 309.304 195.923C312.766 196.957 314.402 193.855 317.373 191.106C320.345 188.357 319.254 185.254 323.78 188.357C328.305 191.459 331.74 194.29 334.166 193.909C336.592 193.528 335.556 196.005 339.346 196.141C343.135 196.277 348.315 197.665 352.131 199.026C355.921 200.414 373.531 202.482 373.886 199.026C374.24 195.569 352.131 191.432 354.557 188.33C356.984 185.227 369.06 193.147 371.132 191.786C373.204 190.398 369.415 182.832 369.415 182.832C369.415 182.832 367.343 176.98 365.271 177.661C363.199 178.341 362.709 182.478 360.528 179.375C358.347 176.273 362.49 175.238 354.557 174.204C346.624 173.17 344.907 168.679 341.09 168.353C337.301 167.999 334.521 164.896 338.664 162.501C342.808 160.079 341.418 158.01 345.561 158.718C349.705 159.398 354.203 153.71 354.885 153.629C355.566 153.547 363.363 155.615 360.5 159.398C357.638 163.182 366.28 169.06 368.679 166.638C371.105 164.216 363.853 161.467 365.217 158.01C366.58 154.554 368.324 151.451 366.252 149.056C364.181 146.634 364.371 151.479 360.473 151.125C356.575 150.771 355.539 144.239 354.503 143.885C353.467 143.531 352.104 149.737 347.933 148.376C343.789 146.988 345.18 142.17 345.18 142.17C345.18 142.17 339.646 143.559 337.574 146.307C335.502 149.056 323.752 142.524 322.035 138.387C320.318 134.25 318.491 132.182 317.319 132.182C316.147 132.182 317.401 123.228 314.538 123.908C311.676 124.589 307.886 128.726 306.823 128.399C305.787 128.045 302.516 128.045 298.454 124.942C294.392 121.84 291.884 126.657 289.513 121.84C287.141 117.022 286.105 110.817 281.28 113.566C276.454 116.315 277.49 117.022 275.419 120.806C273.347 124.589 273.238 131.148 269.83 124.942C266.422 118.737 269.203 104.258 259.88 106.326L259.852 106.272ZM219.125 42.1776C216.017 44.9265 215.445 46.6683 216.426 48.7368C217.407 50.8052 223.841 48.7368 223.841 48.7368C221.906 52.1933 221.633 51.8395 223.841 56.3302C226.049 60.8209 226.404 60.8209 227.603 63.5698C228.803 66.3186 230.52 60.4671 230.52 59.4329C230.52 58.3986 232.864 48.764 233.437 48.764C234.009 48.764 236.408 47.0494 230.874 42.5587C225.34 38.0679 222.587 34.2849 219.479 31.1822C216.372 28.0795 207.048 30.3113 211.873 34.557C216.699 38.7756 222.233 39.456 219.125 42.2321V42.1776ZM233.408 80.7714C233.599 82.486 239.024 79.0568 242.023 77.6687C245.022 76.2807 243.986 75.0015 248.129 75.1376C252.273 75.2737 257.098 76.2807 257.098 76.2807C257.098 76.2807 265.031 71.8172 257.098 71.8172C249.165 71.8172 247.993 71.4906 244.258 70.4564C240.524 69.4222 238.833 64.8498 236.762 69.0411C235.289 71.9805 237.47 71.8444 236.762 74.5933C236.053 77.3421 233.245 79.0568 233.436 80.7986L233.408 80.7714ZM260.887 81.4502C261.569 76.6329 253.281 78.3475 250.882 82.4844C248.456 86.6213 248.974 92.9083 241.477 92.0102C233.981 91.112 231.2 92.5001 230.518 87.6556C229.837 82.8382 231.554 80.0894 229.837 78.538C228.119 76.9867 226.375 74.2106 224.657 78.7013C222.04 85.5327 226.375 88.6898 227.765 94.2147C229.155 99.7397 238.806 101.454 244.34 99.7397C249.874 98.025 250.91 89.1252 254.017 92.0102C257.125 94.8951 261.269 96.9636 264.022 93.8609C266.776 90.7582 260.233 86.2675 260.914 81.4502H260.887ZM227.576 27.6983C226.349 29.7668 231.528 22.1734 232.237 27.6983C232.919 33.2233 230.52 35.2917 232.919 33.2233C235.345 31.1548 235.372 27.3717 236.735 28.406C238.098 29.4402 241.724 25.9837 241.451 25.9837C241.179 25.9837 247.749 23.5614 246.031 28.7326C244.314 33.9037 241.043 33.5499 241.451 36.3259C241.888 39.0748 232.101 34.6113 233.709 39.0748C235.318 43.5655 235.427 41.4971 238.48 45.2802C241.533 49.0632 243.114 46.9948 244.232 51.4855C245.35 55.9762 235.372 51.4855 236.735 55.2686C238.098 59.0517 240.688 54.2344 241.451 58.0175C242.242 61.8005 240.715 68.0059 244.232 65.9374C247.749 63.869 244.995 61.1201 252.247 64.5494C259.498 68.0059 263.996 71.5712 260.18 66.3457C256.391 61.1201 252.574 59.3783 256.391 56.6294C260.18 53.8806 263.996 50.4241 258.462 49.3898C252.928 48.3556 248.785 50.4241 251.565 45.2529C254.319 40.0818 253.283 36.6525 255.709 36.6525C258.135 36.6525 263.315 39.7552 261.57 29.7668C259.853 19.7783 251.565 22.5272 252.928 18.3903C254.319 14.2534 266.395 10.4703 261.897 8.04806C257.399 5.6258 253.256 -4.36264 251.892 2.19652C250.502 8.75569 251.538 13.573 248.103 10.8241C244.641 8.07528 250.284 -0.770069 236.735 9.4361C232.21 12.8382 234.936 14.961 233.409 17.0295C231.883 19.0979 229.811 14.6072 227.576 17.0295C225.313 19.4518 219.179 20.1322 221.742 22.881C224.304 25.6299 228.802 25.6299 227.576 27.6983ZM165.965 86.2683C167.001 90.0514 158.25 88.6905 157.459 90.0514C156.641 91.4394 161.14 94.8687 164.574 93.5079C168.037 92.1198 170.517 91.1672 171.335 91.9837C172.153 92.8002 166.019 94.1883 171.335 95.2225C176.651 96.2567 178.041 100.312 176.651 100.339C175.261 100.394 167.328 100.04 169.4 102.108C171.472 104.177 181.122 104.775 182.185 100.339C183.221 95.9029 187.01 99.686 188.046 96.2567C189.082 92.8002 189.437 92.7186 186.656 88.2823C183.903 83.846 178.369 83.1656 179.759 86.2411C181.122 89.3437 184.938 89.7792 183.221 91.9565C181.504 94.1611 180.795 95.5219 178.723 92.4192C176.651 89.3437 175.261 88.2551 175.261 88.2551C175.261 88.2551 175.588 74.4291 165.938 81.1788C163.62 82.8118 164.902 82.4308 165.938 86.2138L165.965 86.2683Z"/>;
  
</g>
</svg>







