<svg xmlns="http://www.w3.org/2000/svg" xmlns:xlink="http://www.w3.org/1999/xlink" width="30px" height="30px" viewBox="0 0 60 60" version="1.1">
<g id="surface1">
<path style=" stroke:none;fill-rule:nonzero;fill:rgb(10.196078%,10.196078%,10.196078%);fill-opacity:1;" d="M 51.609375 22.136719 C 51.609375 32.40625 44.574219 40.996094 35.039062 43.386719 C 33.898438 43.671875 29.648438 58.859375 29.648438 58.859375 C 29.648438 58.859375 25.433594 43.671875 24.292969 43.386719 C 14.757812 40.996094 7.6875 32.371094 7.6875 22.101562 C 7.6875 9.980469 17.507812 0.175781 29.648438 0.175781 C 41.789062 0.175781 51.609375 9.980469 51.609375 22.101562 Z M 51.609375 22.136719 "/>
<path style=" stroke:none;fill-rule:nonzero;fill:rgb(100%,100%,100%);fill-opacity:1;" d="M 43.144531 21.707031 C 43.144531 29.160156 37.109375 35.222656 29.648438 35.222656 C 22.183594 35.222656 16.113281 29.160156 16.113281 21.707031 C 16.113281 14.257812 22.148438 8.195312 29.648438 8.195312 C 37.148438 8.195312 43.144531 14.222656 43.144531 21.707031 Z M 43.144531 21.707031 "/>
</g>
</svg>